<?xml version="1.0" encoding="UTF-8" standalone="no"?>
<!DOCTYPE svg PUBLIC "-//W3C//DTD SVG 1.1//EN" "http://www.w3.org/Graphics/SVG/1.1/DTD/svg11.dtd">
<svg width="100%" height="100%" viewBox="0 0 423 311" version="1.1" xmlns="http://www.w3.org/2000/svg" xmlns:xlink="http://www.w3.org/1999/xlink" xml:space="preserve" xmlns:serif="http://www.serif.com/" style="fill-rule:evenodd;clip-rule:evenodd;stroke-linecap:round;stroke-linejoin:round;stroke-miterlimit:1;">
    <g transform="matrix(1,0,0,1,-855.088,-3733.45)">
        <g id="Artboard2" transform="matrix(0.323645,0,0,1,855.088,569.902)">
            <rect x="-0" y="3163.55" width="1306.29" height="310.943" style="fill:hsl(223deg, 31%, 80%)"/>
            <clipPath id="_clip1">
                <rect x="-0" y="3163.55" width="1306.29" height="310.943"/>
            </clipPath>
            <g clip-path="url(#_clip1)">
                <g transform="matrix(4.07143,0,0,0.269379,-1193.73,3177.75)">
                    <g transform="matrix(0,-3.13063,-0.64,0,420.294,139.406)">
                        <path d="M-52.085,-52.085C-80.851,-52.085 -104.17,-28.766 -104.17,0C-104.17,28.766 -80.851,52.085 -52.085,52.085C-23.319,52.085 0,28.766 0,0C0,-28.766 -23.319,-52.085 -52.085,-52.085ZM-52.085,-43.076C-28.294,-43.076 -9.009,-23.79 -9.009,-0C-9.009,23.79 -28.294,43.075 -52.085,43.075C-75.875,43.075 -95.161,23.79 -95.161,-0C-95.161,-23.79 -75.875,-43.076 -52.085,-43.076Z" style="fill:hsl(223deg, 31%, 80%);"/>
                    </g>
                    <g transform="matrix(-0.42421,-3.06628,-0.626845,2.07507,941.604,1414.29)">
                        <path d="M637.459,404.385L664.82,404.385L664.82,402.385L637.615,402.385C637.701,403.058 637.646,403.739 637.459,404.385ZM637.286,401.144L656.454,388.172L655.333,386.515L636.165,399.487C636.401,399.717 636.617,399.975 636.809,400.259C637.001,400.542 637.16,400.839 637.286,401.144ZM628.191,404.884L625.536,406.68L626.657,408.336L629.311,406.54C629.075,406.31 628.859,406.053 628.667,405.769C628.475,405.485 628.316,405.189 628.191,404.884Z" style="fill:#7d97d8;"/>
                    </g>
                    <g transform="matrix(0,-3.70243,-0.756895,0,420.563,292.216)">
                        <path d="M-4.916,-4.916C-7.631,-4.916 -9.832,-2.715 -9.832,0C-9.832,2.715 -7.631,4.916 -4.916,4.916C-2.201,4.916 0,2.715 0,0C0,-2.715 -2.201,-4.916 -4.916,-4.916" style="fill:hsl(223deg, 31%, 80%);fill-rule:nonzero;"/>
                    </g>
                </g>
                <g transform="matrix(1.97874,0,0,0.640409,718.191,3453.32)">
                    <path d="M-65.703,5.923L-108.81,5.923C-116,5.923 -121.883,0.04 -121.883,-7.15L-121.883,-13.052C-121.883,-20.242 -116,-26.126 -108.81,-26.126L-65.703,-26.126C-72.893,-26.126 -78.776,-20.242 -78.776,-13.052L-78.776,-7.15C-78.776,0.04 -72.893,5.923 -65.703,5.923Z" style="fill:#2f3f64;"/>
                </g>
                <g transform="matrix(1.97874,0,0,0.640409,591.248,3440.27)">
                    <path d="M0,20.549C-3.879,20.549 -7.053,17.375 -7.053,13.496L-7.053,7.227C-7.053,3.347 -3.879,0.173 0,0.173L107.259,0.173L107.259,-5.75L-1.55,-5.75C-8.74,-5.75 -14.623,0.134 -14.623,7.324L-14.623,13.226C-14.623,20.416 -8.74,26.299 -1.55,26.299L107.259,26.299L107.259,20.549L0,20.549Z" style="fill:#7d97d8;fill-rule:nonzero;"/>
                </g>
                <g transform="matrix(1.97874,0,0,0.640409,789.835,3453.43)">
                    <path d="M0,-20.376L-100.36,-20.376C-104.239,-20.376 -107.413,-17.202 -107.413,-13.322L-107.413,-7.053C-107.413,-3.174 -104.239,0 -100.36,0L0,0L0,-20.376Z" style="fill:hsl(223deg, 31%, 80%);fill-rule:nonzero;"/>
                </g>
                <g transform="matrix(1.97874,0,0,0.640409,400.107,3194.17)">
                    <g transform="matrix(-1,0,0,1,325.556,291.964)">
                        <rect x="128.598" y="95.82" width="88.651" height="0.75" style="fill:#7d97d8;"/>
                    </g>
                    <g transform="matrix(-1,0,0,1,325.556,317.556)">
                        <rect x="128.598" y="83.024" width="88.651" height="0.75" style="fill:#7d97d8;"/>
                    </g>
                    <g transform="matrix(-1,0,0,1,312.761,310.508)">
                        <rect x="115.803" y="86.548" width="101.446" height="0.75" style="fill:#7d97d8;"/>
                    </g>
                </g>
                <g transform="matrix(1.97874,0,0,0.640409,767.669,3471.24)">
                    <path d="M-43.597,6.025L-119.647,6.025C-127.554,6.025 -134.023,0.04 -134.023,-7.274L-134.023,-8.85C-134.023,-16.164 -127.554,-22.149 -119.647,-22.149L-43.597,-22.149C-51.503,-22.149 -57.973,-16.164 -57.973,-8.849L-57.973,-7.274C-57.973,0.04 -51.503,6.025 -43.597,6.025Z" style="fill:#2f3f64;"/>
                </g>
                <g transform="matrix(1.97874,0,0,0.640409,684.774,3460.81)">
                    <path d="M0,16.475C-4.266,16.475 -7.756,13.246 -7.756,9.3L-7.756,7.351C-7.756,3.405 -4.266,0.175 0,0.175L92.566,0.175L92.566,-5.85L-1.705,-5.85C-9.611,-5.85 -16.08,0.135 -16.08,7.45L-16.08,9.025C-16.08,16.339 -9.611,22.325 -1.705,22.325L92.566,22.325L92.566,16.475L0,16.475Z" style="fill:#7d97d8;fill-rule:nonzero;"/>
                </g>
                <g transform="matrix(1.97874,0,0,0.640409,852.928,3471.36)">
                    <path d="M0,-16.3L-84.98,-16.3C-89.246,-16.3 -92.736,-13.071 -92.736,-9.124L-92.736,-7.175C-92.736,-3.229 -89.246,0 -84.98,0L0,0L0,-16.3Z" style="fill:hsl(223deg, 31%, 80%);fill-rule:nonzero;"/>
                </g>
                <g transform="matrix(-1.97874,0,0,0.563233,587.917,3391.35)">
                    <path d="M-42.027,80.307L-5.207,80.307L4.874,0L-52.535,0L-42.027,80.307Z" style="fill:hsl(223deg, 31%, 80%);fill-rule:nonzero;"/>
                </g>
                <g transform="matrix(0.119874,-0.639233,-1.9751,-0.0387967,673.206,3397.91)">
                    <path d="M-43.152,-7.527L-7.575,-10.327L-11.103,47.811L-46.097,40.995L-43.152,-7.527Z" style="fill:rgb(254, 201, 92);fill-rule:nonzero;"/>
                </g>
                <g transform="matrix(1.97874,0,0,0.640409,576.413,3390.18)">
                    <path d="M54.46,-4.636L56.94,-4.636C58.113,-4.636 59.116,-3.792 59.316,-2.636L60.091,1.835L-0.803,1.835L0,-2.801C0.184,-3.862 1.104,-4.636 2.18,-4.636L4.662,-4.636L5.693,-12.252C5.895,-13.74 7.166,-14.85 8.668,-14.85L50.649,-14.85C52.039,-14.85 53.215,-13.823 53.402,-12.445L54.46,-4.636Z" style="fill:#2f3f64;"/>
                </g>
                <g transform="matrix(2.06184,0,0,0.667305,-3268.45,3094.07)">
                    <g transform="matrix(0.933784,0,0.308984,0.956238,-548.187,-217.596)">
                        <path d="M2637.38,751.125L2637.38,824.046L2593.89,824.046L2637.38,751.125Z" style="fill:#2f3f64;"/>
                    </g>
                    <g transform="matrix(0.933784,0,-0.247965,0.956238,-129.848,-217.596)">
                        <rect x="2548.24" y="751.125" width="89.138" height="72.921" style="fill:hsl(223deg, 31%, 80%);"/>
                    </g>
                    <g transform="matrix(1,0,0,1.12482,-502.465,-331.499)">
                        <path d="M2644.52,755.549L2561.28,755.549L2565.87,739.816L2649.11,739.816L2644.52,755.549Z" style="fill:#7d97d8;"/>
                    </g>
                    <g transform="matrix(1.24516,0,0,1.24516,-1135.46,-423.678)">
                        <path d="M2592.5,742.343C2592.5,737.896 2588.89,734.285 2584.44,734.285C2579.99,734.285 2576.38,737.896 2576.38,742.343C2576.38,746.791 2579.99,750.401 2584.44,750.401C2584.89,750.401 2585.24,750.761 2585.24,751.204C2585.24,751.648 2584.89,752.007 2584.44,752.007C2579.11,752.007 2574.78,747.677 2574.78,742.343C2574.78,737.009 2579.11,732.679 2584.44,732.679C2588.4,732.679 2591.81,735.068 2593.3,738.483C2594.79,735.068 2598.2,732.679 2602.16,732.679C2606.13,732.679 2609.53,735.068 2611.03,738.483C2612.52,735.068 2615.93,732.679 2619.89,732.679C2625.22,732.679 2629.55,737.009 2629.55,742.343C2629.55,742.786 2629.19,743.146 2628.75,743.146C2628.3,743.146 2627.95,742.786 2627.95,742.343C2627.95,737.896 2624.33,734.285 2619.89,734.285C2615.44,734.285 2611.83,737.896 2611.83,742.343C2611.83,746.791 2615.44,750.401 2619.89,750.401C2620.33,750.401 2620.69,750.761 2620.69,751.204C2620.69,751.648 2620.33,752.007 2619.89,752.007C2614.55,752.007 2610.22,747.677 2610.22,742.343C2610.22,737.896 2606.61,734.285 2602.16,734.285C2597.72,734.285 2594.11,737.896 2594.11,742.343C2594.11,746.791 2597.72,750.401 2602.16,750.401C2602.61,750.401 2602.97,750.761 2602.97,751.204C2602.97,751.648 2602.61,752.007 2602.16,752.007C2596.83,752.007 2592.5,747.677 2592.5,742.343Z" style="fill:hsl(223deg, 31%, 80%);"/>
                    </g>
                    <g transform="matrix(2.45952,0,-0.430494,2.45952,-4244.94,-1269)">
                        <g transform="matrix(15.142,0,0,15.142,2713.53,740.912)">
                        </g>
                        <text x="2696.68px" y="740.912px" style="font-family:'Arial-BoldMT', 'Arial', sans-serif;font-weight:700;font-size:15.142px;fill:rgb(254, 201, 92);">25</text>
                    </g>
                    <g transform="matrix(0.936709,0,-0.203094,0.936709,-175.023,-191.71)">
                        <path d="M2610.98,803.455C2610.98,804.626 2610.03,805.577 2608.86,805.577L2568.27,805.577C2567.1,805.577 2566.15,804.626 2566.15,803.455C2566.15,802.284 2567.1,801.334 2568.27,801.334L2608.86,801.334C2610.03,801.334 2610.98,802.284 2610.98,803.455Z" style="fill:rgb(254, 201, 92);"/>
                    </g>
                </g>
                <g transform="matrix(2.43798,0,0,0.789041,-4034.31,3035.65)">
                    <g transform="matrix(1,0,0,1,-509.507,-233.122)">
                        <path d="M2420.74,663.495C2420.71,664.193 2420.11,664.731 2419.41,664.694C2418.71,664.658 2418.17,664.062 2418.21,663.363C2419.14,645.517 2430.61,637.695 2443.28,632.199C2450.6,629.024 2458.32,626.64 2464.45,623.409C2468.34,621.361 2471.58,618.982 2473.58,615.764C2476.16,611.605 2479.75,600.665 2474.44,588.835C2470.82,580.799 2463.12,572.4 2448.39,565.336C2447.76,565.034 2447.49,564.276 2447.79,563.645C2448.09,563.015 2448.85,562.748 2449.48,563.05C2464.95,570.465 2472.96,579.362 2476.75,587.796C2482.53,600.671 2478.54,612.575 2475.73,617.101C2473.51,620.678 2469.95,623.375 2465.63,625.652C2459.45,628.909 2451.67,631.323 2444.29,634.524C2432.46,639.654 2421.61,646.837 2420.74,663.495Z" style="fill:hsl(223deg, 31%, 80%);"/>
                    </g>
                    <g transform="matrix(1,0,0,1,-475.35,-233.122)">
                        <path d="M2392.85,664.188C2392.82,664.887 2392.22,665.424 2391.52,665.388C2390.82,665.352 2390.28,664.755 2390.32,664.057C2390.81,654.617 2396.08,647.819 2403.89,642.669C2411.45,637.686 2421.42,634.256 2431.54,631.391C2442.47,628.3 2453.59,625.865 2461.96,622.759C2467.28,620.786 2471.47,618.587 2473.64,615.676C2477.43,610.58 2480.3,602.449 2477.72,593.436C2475.08,584.211 2466.8,574.161 2448.39,565.336C2447.76,565.034 2447.49,564.276 2447.79,563.645C2448.09,563.015 2448.85,562.748 2449.48,563.05C2468.83,572.324 2477.38,583.044 2480.16,592.739C2482.99,602.647 2479.84,611.586 2475.67,617.189C2473.28,620.405 2468.72,622.955 2462.84,625.136C2454.42,628.261 2443.23,630.719 2432.23,633.83C2422.37,636.62 2412.65,639.932 2405.29,644.785C2398.18,649.47 2393.3,655.6 2392.85,664.188Z" style="fill:hsl(223deg, 31%, 80%);"/>
                    </g>
                </g>
                <g transform="matrix(2.08227,0,0,0.651465,-3375.35,3093.65)">
                    <g>
                        <g transform="matrix(1,0,0,1,-501.193,-242.968)">
                            <path d="M2106.74,637.15C2099.86,628.377 2091.13,607.669 2100.18,562.149C2113.81,493.634 2138.35,472.579 2138.35,472.579C2138.35,472.579 2134.78,498.125 2149.11,527.751C2154.83,539.569 2158.74,550.999 2161.36,560.471C2153.56,575.131 2144.08,593.138 2122.32,616.444C2115.98,623.242 2110.85,630.193 2106.74,637.15Z" style="fill:hsl(223deg, 31%, 80%);stroke:#7d97d8;stroke-opacity:0.2;stroke-width:3.02px;"/>
                        </g>
                        <g transform="matrix(1,0,0,1,-501.193,-242.968)">
                            <path d="M2185.26,723.425C2196.4,711.868 2227.37,676.639 2238.93,631.541C2273.94,618.177 2271.79,670.939 2271.58,667.473C2270.58,651.047 2252.89,630.211 2242.01,658.23C2240.18,662.948 2238.19,667.477 2236.1,671.801C2223.76,697.343 2207.96,715.704 2200.68,723.425L2185.26,723.425Z" style="fill:hsl(223deg, 31%, 80%);stroke:#7d97d8;stroke-opacity:0.2;stroke-width:3.02px;"/>
                        </g>
                        <g transform="matrix(1,0,0,1,-501.193,-242.968)">
                            <path d="M2113.46,740.73C2093.99,744.68 2097.95,733.07 2097.95,733.07C2097.95,733.07 2072.36,669.966 2122.32,616.444C2172.29,562.922 2157.5,537.352 2206.33,516.059C2250.41,496.84 2271.01,472.579 2271.01,472.579C2271.01,472.579 2267.56,518.446 2237.09,547.016C2206.61,575.587 2205.01,585.593 2204.71,611.023C2204.42,635.985 2215.81,691.638 2156.48,723.426L2113.46,723.425L2113.46,740.73Z" style="fill:hsl(223deg, 31%, 80%);stroke:#7d97d8;stroke-opacity:0.2;stroke-width:3.02px;"/>
                        </g>
                        <g transform="matrix(0.927267,0,0,0.915401,-347.475,-181.767)">
                            <path d="M2209.53,723.425L2209.53,723.425C2209.53,755.585 2184.65,781.656 2153.96,781.656L2113.46,781.656L2113.46,723.425L2209.53,723.425Z" style="fill:#7d97d8;"/>
                        </g>
                        <g transform="matrix(1,0,0,1,-501.193,-242.968)">
                            <path d="M2156.48,723.425C2215.81,691.637 2204.42,635.985 2204.71,611.023C2204.73,609.339 2204.76,607.723 2204.8,606.164C2300.12,524.28 2288.93,637.047 2288.21,620.432C2286.78,586.973 2253.1,574.083 2239.27,630.193C2227.99,675.937 2196.51,711.753 2185.26,723.425L2156.48,723.425Z" style="fill:hsl(223deg, 31%, 80%);stroke:#7d97d8;stroke-opacity:0.2;stroke-width:3.02px;"/>
                        </g>
                        <g transform="matrix(1,0,0,1,-501.193,-242.968)">
                            <path d="M2288.96,616.597C2291.21,630.814 2282.3,627.8 2276.39,611.563C2268.32,589.398 2258.03,595.116 2258.03,595.116C2272.14,585.11 2288.01,596.687 2288.96,618.867C2289.12,622.4 2288.99,621.648 2288.96,616.597Z" style="fill:#2f3f64;"/>
                        </g>
                        <g transform="matrix(1,0,0,1,-501.193,-242.968)">
                            <path d="M2271.57,667.298C2270.97,694.669 2246.87,726.908 2249.86,714.671C2254.54,695.536 2237.54,675.39 2236.1,672.77C2237.23,670.222 2240.97,660.903 2242.01,658.23C2252.85,630.31 2270.46,650.9 2271.57,667.298Z" style="fill:#2f3f64;"/>
                        </g>
                    </g>
                    <g transform="matrix(0.927267,-1.13557e-16,-1.12104e-16,-0.915401,-347.475,1249.29)">
                        <path d="M2209.53,723.425L2209.53,723.425C2209.53,755.585 2184.65,781.656 2153.96,781.656L2113.46,781.656L2113.46,723.425L2209.53,723.425Z" style="fill:#7d97d8;"/>
                    </g>
                </g>
                <g transform="matrix(3.0898,0,0,1,-5694.41,2859.26)">
                    <path d="M2148.15,374.632L2083.18,374.632C2082.35,374.632 2081.68,373.96 2081.68,373.132C2081.68,372.304 2082.35,371.632 2083.18,371.632L2243.51,371.632C2244.34,371.632 2245.01,372.304 2245.01,373.132C2245.01,373.96 2244.34,374.632 2243.51,374.632L2151.15,374.632L2151.15,407.102L2216.12,407.102C2216.95,407.102 2217.62,407.774 2217.62,408.602C2217.62,409.43 2216.95,410.102 2216.12,410.102L2083.18,410.102C2082.35,410.102 2081.68,409.43 2081.68,408.602C2081.68,407.774 2082.35,407.102 2083.18,407.102L2148.15,407.102L2148.15,374.632ZM2062.79,339.473C2061.97,339.473 2061.29,338.8 2061.29,337.973C2061.29,337.145 2061.97,336.473 2062.79,336.473L2181.27,336.473C2182.1,336.473 2182.77,337.145 2182.77,337.973C2182.77,338.8 2182.1,339.473 2181.27,339.473L2062.79,339.473Z" style="fill:rgb(217,217,217);"/>
                </g>
                <g transform="matrix(-1.97874,0,0,0.640409,1203.22,3422.31)">
                    <rect x="177.03" y="63.683" width="72.105" height="0.75" style="fill:#7d97d8;"/>
                </g>
                <g transform="matrix(-1.97874,0,0,0.640409,1203.22,3433.31)">
                    <rect x="177.03" y="55.095" width="72.105" height="0.75" style="fill:#7d97d8;"/>
                </g>
                <g transform="matrix(-1.97874,0,0,0.640409,1175.38,3428.72)">
                    <rect x="162.959" y="58.68" width="86.176" height="0.75" style="fill:#7d97d8;"/>
                </g>
            </g>
        </g>
    </g>
</svg>
