<?xml version="1.0" encoding="UTF-8" standalone="no"?>
<!DOCTYPE svg PUBLIC "-//W3C//DTD SVG 1.1//EN" "http://www.w3.org/Graphics/SVG/1.1/DTD/svg11.dtd">
<svg width="100%" height="100%" viewBox="0 0 440 311" version="1.1" xmlns="http://www.w3.org/2000/svg" xmlns:xlink="http://www.w3.org/1999/xlink" xml:space="preserve" xmlns:serif="http://www.serif.com/" style="fill-rule:evenodd;clip-rule:evenodd;stroke-linejoin:round;stroke-miterlimit:2;">
    <g transform="matrix(1,0,0,1,-1317.52,-3733.45)">
        <g id="Artboard2" transform="matrix(0.336805,0,0,1,1317.52,569.902)">
            <rect x="-0" y="3163.55" width="1306.29" height="310.943" style="fill:hsl(223deg, 31%, 80%)"/>
            <clipPath id="_clip1">
                <rect x="-0" y="3163.55" width="1306.29" height="310.943"/>
            </clipPath>
            <g clip-path="url(#_clip1)">
                <g transform="matrix(2.96907,0,0,1,-2572.19,0)">
                    <g transform="matrix(0.785513,0,0,1.0896,-1430.98,2632.07)">
                        <rect x="3061.17" y="676.207" width="5.717" height="13.286" style="fill:#2f3f64;"/>
                    </g>
                    <g transform="matrix(0.785513,0,0,1.0896,-1426.49,2632.07)">
                        <rect x="3061.17" y="676.207" width="13.977" height="13.286" style="fill:hsl(223deg, 31%, 80%)"/>
                    </g>
                    <g transform="matrix(0.698533,0,0,0.703215,-1167.58,2899.7)">
                        <path d="M3006.28,840.685L2997.16,840.685L3005.82,716.392C3006.94,700.227 3019.01,687.752 3033.53,687.752L3044.9,687.752C3041.21,687.752 3037.68,688.558 3034.45,690.025C3023.63,694.379 3015.76,704.558 3014.91,716.789L3006.28,840.685Z" style="fill:#2f3f64;"/>
                    </g>
                    <g transform="matrix(0.698533,0,0,0.703215,-1161.21,2899.7)">
                        <path d="M3116.72,687.752C3142.72,687.752 3164.14,708.028 3165.39,733.822L3170.57,840.685L2997.16,840.685L3005.79,716.789C3006.93,700.438 3020.62,687.752 3037.12,687.752L3116.72,687.752ZM3053.98,731.773L3053.98,755.698C3053.98,756.454 3054.6,757.067 3055.36,757.067L3061.89,757.067C3062.65,757.067 3063.26,756.454 3063.26,755.698L3063.26,730.405C3063.26,729.649 3062.65,729.036 3061.89,729.036L3048.49,729.036C3047.73,729.036 3047.11,729.649 3047.11,730.405L3047.11,747.157C3047.11,747.913 3047.73,748.526 3048.49,748.526C3049.25,748.526 3049.87,747.913 3049.87,747.157L3049.87,731.773L3053.98,731.773ZM3069.15,755.698C3069.15,756.454 3069.76,757.067 3070.52,757.067L3077.05,757.067C3077.81,757.067 3078.43,756.454 3078.43,755.698L3078.43,724.084C3078.43,723.329 3077.81,722.716 3077.05,722.716L3070.52,722.716C3069.76,722.716 3069.15,723.329 3069.15,724.084L3069.15,755.698ZM3089.47,758.215L3040.16,758.215L3040.16,796.393C3040.16,808.292 3049.87,817.939 3061.85,817.939L3067.78,817.939C3079.76,817.939 3089.47,808.292 3089.47,796.393L3089.47,758.215Z" style="fill:hsl(223deg, 31%, 80%);"/>
                    </g>
                    <g transform="matrix(0.785513,0,0,0.703215,-1437.73,2893.73)">
                        <path d="M3054.64,675.646L3047.65,675.646C3040.83,675.646 3035.3,669.461 3035.3,661.842L3035.3,634.235C3035.3,626.617 3040.83,620.432 3047.65,620.432L3054.64,620.432C3047.82,620.432 3042.28,626.617 3042.28,634.235L3042.28,661.842C3042.28,669.461 3047.82,675.646 3054.64,675.646Z" style="fill:#2f3f64;"/>
                    </g>
                    <g transform="matrix(0.785513,0,0,0.703215,-1432.24,2893.73)">
                        <path d="M3115.68,634.235L3115.68,661.842C3115.68,669.461 3110.14,675.646 3103.32,675.646L3047.65,675.646C3040.83,675.646 3035.3,669.461 3035.3,661.842L3035.3,634.235C3035.3,626.617 3040.83,620.432 3047.65,620.432L3103.32,620.432C3110.14,620.432 3115.68,626.617 3115.68,634.235Z" style="fill:hsl(223deg, 31%, 80%);"/>
                    </g>
                </g>
                <g transform="matrix(2.96907,0,0,1,-2572.19,0)">
                    <g transform="matrix(0.633153,0,0,0.731982,944.378,3432.36)">
                        <path d="M255.739,58.095L170.703,58.095L170.703,46.754L291.474,46.754L292.331,51.689L265.785,51.689C261.475,51.689 257.557,54.188 255.739,58.095Z" style="fill:#7d97d8;"/>
                    </g>
                    <g transform="matrix(-0.633153,0,0,0.731982,1052.46,3466.58)">
                        <path d="M0,11.341L75.739,11.341L75.739,5.278L0,0L0,11.341Z" style="fill:#2f3f64;fill-rule:nonzero;"/>
                    </g>
                    <g transform="matrix(-0.633153,0,0,0.731982,1059.46,3326.86)">
                        <path d="M-7.52,157.632L0,157.632C7.398,157.632 12.882,150.765 11.245,143.55L-19.498,8.001C-20.559,3.322 -24.718,0 -29.517,0L-37.037,0C-32.238,0 -28.079,3.322 -27.018,8.001L3.725,143.55C5.362,150.765 -0.123,157.632 -7.52,157.632Z" style="fill:#2f3f64;"/>
                    </g>
                    <g transform="matrix(-0.633153,0,0,0.731982,1064.23,3326.86)">
                        <path d="M-96.406,157.632L0,157.632C7.397,157.632 12.882,150.765 11.245,143.55L-19.498,8.001C-20.559,3.322 -24.718,0 -29.517,0L-251.681,0C-259.078,0 -264.562,6.868 -262.926,14.082L-232.183,149.631C-231.122,154.31 -226.963,157.632 -222.164,157.632L-158.504,157.632L-150.08,113.038L-94.823,113.038L-91.168,127.506L-96.406,157.632Z" style="fill:#7d97d8;"/>
                    </g>
                    <g transform="matrix(-0.633153,0,0,0.731982,1098.22,3370.43)">
                        <path d="M-40.605,85.95L-0,85.95C4.44,85.95 7.812,81.877 6.831,77.547L-9.804,4.203C-10.453,1.34 -13.036,-0.657 -15.971,-0.657L-136.182,-0.657C-140.622,-0.657 -143.994,3.416 -143.013,7.746L-126.378,81.09C-125.729,83.953 -123.146,85.95 -120.211,85.95L-102.521,85.95L-102.272,84.636L-120.211,84.636C-122.468,84.636 -124.387,83.039 -124.886,80.837L-141.521,7.492C-142.31,4.016 -139.748,0.657 -136.182,0.657L-15.971,0.657C-13.714,0.657 -11.795,2.254 -11.296,4.456L5.339,77.801C6.128,81.277 3.566,84.636 0,84.636L-40.377,84.636L-40.605,85.95Z" style="fill:#2f3f64;"/>
                    </g>
                    <g transform="matrix(0.633153,0,0,0.731982,1159.25,3409.6)">
                        <path d="M-38.41,89.187L16.847,89.187L0,0L-55.257,0L-38.41,89.187Z" style="fill:#7d97d8;fill-rule:nonzero;"/>
                    </g>
                    <g transform="matrix(-0.633153,0,0,0.731982,1124.26,3442.23)">
                        <path d="M-0,-43.914L0,-45.228L-55.903,-45.228L-64.426,-0.106L-62.926,0.106L-54.611,-43.914L-0,-43.914Z" style="fill:#2f3f64;"/>
                    </g>
                    <g transform="matrix(-0.633153,0,0,0.731982,1112.66,3414.29)">
                        <path d="M0,76.375L-26.546,76.375L-14.67,8.062L-18.325,-6.406L-35.172,82.781L10.046,82.781C8.228,78.874 4.31,76.375 0,76.375" style="fill:#2f3f64;fill-rule:nonzero;"/>
                    </g>
                    <g transform="matrix(1,0,0,1,-34.4454,0)">
                        <g transform="matrix(0.641554,0,0,0.599955,-1008.2,2986.54)">
                            <path d="M3179.06,743.965L3179.06,788.713C3179.06,802.661 3168.48,813.968 3155.44,813.968C3153.3,813.968 3151.13,813.968 3148.98,813.968C3135.94,813.968 3125.37,802.661 3125.37,788.713L3125.37,743.965L3179.06,743.965Z" style="fill:#2f3f64;"/>
                        </g>
                        <g transform="matrix(0.641554,0,0,0.641554,-1012.59,2950.91)">
                            <path d="M3147.25,722.279L3142.78,722.279L3142.78,739.142C3142.78,739.97 3142.1,740.642 3141.28,740.642C3140.45,740.642 3139.78,739.97 3139.78,739.142L3139.78,720.779C3139.78,719.95 3140.45,719.279 3141.28,719.279L3155.86,719.279C3156.69,719.279 3157.36,719.95 3157.36,720.779L3157.36,748.504C3157.36,749.332 3156.69,750.004 3155.86,750.004L3148.75,750.004C3147.93,750.004 3147.25,749.332 3147.25,748.504L3147.25,722.279Z" style="fill:rgb(254, 201, 92);"/>
                        </g>
                        <g transform="matrix(0.641554,0,0,0.641554,-1001.99,2950.91)">
                            <path d="M3157.36,720.779L3157.36,748.504C3157.36,749.332 3156.69,750.004 3155.86,750.004L3148.75,750.004C3147.93,750.004 3147.25,749.332 3147.25,748.504L3147.25,720.779C3147.25,719.95 3147.93,719.279 3148.75,719.279L3155.86,719.279C3156.69,719.279 3157.36,719.95 3157.36,720.779Z" style="fill:#7d97d8;"/>
                        </g>
                        <g transform="matrix(0.641554,0,0,0.160305,-1001.99,3293.34)">
                            <path d="M3157.36,720.779L3157.36,748.504C3157.36,751.819 3156.69,754.507 3155.86,754.507L3148.75,754.507C3147.93,754.507 3147.25,751.819 3147.25,748.504L3147.25,720.779C3147.25,717.463 3147.93,714.776 3148.75,714.776L3155.86,714.776C3156.69,714.776 3157.36,717.463 3157.36,720.779Z" style="fill:#2f3f64;"/>
                        </g>
                    </g>
                </g>
                <g transform="matrix(1.06677,0,0,0.75622,-1799.81,2979.07)">
                    <g transform="matrix(2.10475,0,0,0.982293,-4523.09,-234.831)">
                        <path d="M3407.14,469.293L3407.14,644.854C3407.14,651.08 3402.17,656.135 3396.06,656.135L3165.97,656.135C3159.86,656.135 3154.89,651.08 3154.89,644.854L3154.89,469.293C3154.89,463.067 3159.86,458.013 3165.97,458.013L3396.06,458.013C3402.17,458.013 3407.14,463.067 3407.14,469.293ZM3404.14,469.293C3404.14,464.753 3400.52,461.067 3396.06,461.067L3165.97,461.067C3161.51,461.067 3157.89,464.753 3157.89,469.293L3157.89,644.854C3157.89,649.395 3161.51,653.081 3165.97,653.081L3396.06,653.081C3400.52,653.081 3404.14,649.395 3404.14,644.854L3404.14,469.293Z" style="fill:rgb(217,217,217);"/>
                    </g>
                    <g transform="matrix(1.06322,0,0,1.06322,-146.685,0.62004)">
                        <g transform="matrix(2.10475,0,0,1.05117,-4523.09,-260.315)">
                            <rect x="3183.09" y="485.888" width="62.711" height="57.396" style="fill:hsl(223deg, 31%, 80%);"/>
                        </g>
                        <g transform="matrix(2.10475,0,0,0.598137,-4523.09,-40.1911)">
                            <rect x="3286.29" y="485.888" width="96.798" height="127.027" style="fill:hsl(223deg, 31%, 80%);"/>
                        </g>
                        <g transform="matrix(2.10475,0,0,1,-4523.09,-235.451)">
                            <rect x="3183.09" y="561.867" width="28.153" height="28.153" style="fill:hsl(223deg, 31%, 80%);"/>
                        </g>
                        <g transform="matrix(2.10475,0,0,1,-4425.92,-235.451)">
                            <rect x="3183.09" y="561.867" width="28.153" height="28.153" style="fill:rgb(254, 201, 92);"/>
                        </g>
                        <g transform="matrix(3.11043,0,0,1.47781,-7791.25,-465.55)">
                            <circle cx="3225.84" cy="488.664" r="2.253" style="fill:#7d97d8;"/>
                        </g>
                        <g transform="matrix(2.10475,0,0,1,-4523.09,-242.968)">
                            <path d="M3317.34,488.275L3353.4,488.275L3349.18,491.618L3353.62,494.953L3350.5,497.725L3315.68,497.725L3320.7,492.697L3317.34,488.275Z" style="fill:#7d97d8;fill-rule:nonzero;"/>
                        </g>
                    </g>
                </g>
                <g transform="matrix(1.96269,0,0,0.661044,-5733.28,2936.98)">
                    <path d="M3488.84,666.209C3486.53,668.188 3483.53,669.385 3480.25,669.385C3472.96,669.385 3467.05,663.466 3467.05,656.177C3467.05,652.899 3468.24,649.899 3470.22,647.589L3488.84,666.209Z" style="fill:rgb(254, 201, 92);"/>
                </g>
                <g transform="matrix(1.38783,0.467428,-1.38783,0.467428,-2848.42,1412.6)">
                    <path d="M3495.36,648.592L3503.55,613.782C3504.53,609.633 3508.23,606.701 3512.49,606.701L3523.84,606.701C3528.46,606.701 3532.36,610.128 3532.95,614.706L3537.5,649.819C3524.29,643.348 3508.85,642.939 3495.36,648.592Z" style="fill:#7d97d8;"/>
                </g>
                <g transform="matrix(1.96269,0,0,0.661044,-5733.28,2936.98)">
                    <path d="M3469.33,620.755C3494.72,623.623 3514.48,645.198 3514.48,671.352C3514.48,677.474 3513.4,683.345 3511.42,688.784L3465.08,642.444L3469.33,620.755Z" style="fill:hsl(223deg, 31%, 80%);"/>
                </g>
                <g transform="matrix(1.96269,0,0,0.661044,-5733.28,2936.98)">
                    <path d="M3512.75,654.391C3512.03,653.983 3511.78,653.066 3512.19,652.346C3512.6,651.626 3513.51,651.372 3514.23,651.78L3602.73,701.921C3603.14,702.152 3603.42,702.56 3603.48,703.024C3603.54,703.488 3603.39,703.955 3603.05,704.287L3523.5,783.841C3522.91,784.426 3521.96,784.426 3521.38,783.841C3520.79,783.255 3520.79,782.305 3521.38,781.719L3599.54,703.559L3512.75,654.391Z" style="fill:#7d97d8;"/>
                </g>
                <g transform="matrix(1.76466,0,0,0.594348,-5027.44,2987.09)">
                    <path d="M3470.87,820.069C3476.73,800.548 3494.85,786.308 3516.28,786.308C3537.7,786.308 3555.82,800.548 3561.68,820.069L3470.87,820.069Z" style="fill:#2f3f64;"/>
                </g>
                <g transform="matrix(1.78303,0,0,0.632566,-4200.23,3109.64)">
                    <g transform="matrix(1.14719,0,0,1.14719,-1082.21,-328.449)">
                        <circle cx="3599.39" cy="705.218" r="9.51" style="fill:#2f3f64;"/>
                    </g>
                    <g transform="matrix(0.724098,0,0,0.724098,399.248,-23.1883)">
                        <circle cx="3599.39" cy="705.218" r="9.51" style="fill:#2f3f64;"/>
                    </g>
                    <g transform="matrix(1.14719,0,0,1.14719,-1105.84,-350.268)">
                        <circle cx="3599.39" cy="705.218" r="9.51" style="fill:#2f3f64;"/>
                    </g>
                    <g transform="matrix(-1.60372,0,0,2.98255,8813.06,-1649.92)">
                        <path d="M3601.08,696.572C3602.15,696.822 3603.14,697.303 3604,697.94C3606.24,699.581 3607.66,702.234 3607.66,705.218C3607.66,705.588 3608.22,705.888 3608.9,705.888C3609.59,705.888 3610.15,705.588 3610.15,705.218C3610.15,701.904 3608.5,698.969 3606.01,697.147C3605.28,696.609 3604.47,696.165 3603.61,695.825L3601.08,696.572ZM3601.5,695.227C3600.82,695.102 3600.11,695.037 3599.39,695.037C3596.94,695.037 3594.62,695.796 3592.77,697.147C3590.29,698.969 3588.64,701.904 3588.64,705.218C3588.64,708.406 3590.16,711.242 3592.49,713.073C3592.88,713.379 3593.66,713.458 3594.22,713.249C3594.79,713.04 3594.94,712.622 3594.55,712.317C3592.45,710.664 3591.13,708.095 3591.13,705.218C3591.13,702.234 3592.55,699.581 3594.78,697.94C3595.27,697.587 3595.63,697.283 3596.22,696.975C3597.21,696.456 3598.13,696.215 3598.13,696.215L3601.5,695.227Z" style="fill:#2f3f64;"/>
                    </g>
                    <g transform="matrix(1,0,0,1,-501.193,-242.968)">
                        <path d="M3543.87,727.688C3544.37,727.44 3544.97,727.639 3545.22,728.132C3545.46,728.625 3545.26,729.227 3544.77,729.475C3544.77,729.475 3529.61,737.127 3508.84,732.727C3508.3,732.613 3507.96,732.082 3508.07,731.542C3508.18,731.002 3508.72,730.656 3509.26,730.771C3529.26,735.01 3543.87,727.688 3543.87,727.688Z" style="fill:#2f3f64;"/>
                    </g>
                </g>
                <g transform="matrix(2.96907,0,0,1,-7358.93,2895.21)">
                    <path d="M2630.28,318.29L2534.65,318.29L2534.65,346.773C2534.65,347.601 2533.98,348.273 2533.15,348.273C2532.33,348.273 2531.65,347.601 2531.65,346.773L2531.65,318.29L2486.99,318.29C2486.16,318.29 2485.49,317.618 2485.49,316.79C2485.49,315.962 2486.16,315.29 2486.99,315.29L2601.63,315.29L2601.63,284.705L2563.14,284.705C2562.32,284.705 2561.64,284.033 2561.64,283.205C2561.64,282.377 2562.32,281.705 2563.14,281.705L2630.28,281.705L2630.28,284.705L2604.63,284.705L2604.63,315.29L2630.28,315.29L2630.28,318.29Z" style="fill:rgb(217,217,217);"/>
                </g>
            </g>
        </g>
    </g>
</svg>
